<?xml version="1.0" encoding="utf-8"?>
<!-- Generator: Adobe Illustrator 25.2.3, SVG Export Plug-In . SVG Version: 6.00 Build 0)  -->
<svg version="1.1" id="blue" xmlns="http://www.w3.org/2000/svg" xmlns:xlink="http://www.w3.org/1999/xlink" x="0px" y="0px"
	 viewBox="0 0 135.5 75.63" style="enable-background:new 0 0 135.5 75.63;" xml:space="preserve">
<style type="text/css">
	.st0{fill:#1A1446;}
	.st1{fill:#FFFFFF;}
</style>
<g>
	<path class="st0" d="M56,31.96c-0.18-0.24-0.63-0.04-0.63-0.04l-7.13,2.64c-0.55-1.35-1.19-2.62-1.91-3.8l2.31-6.3
		c0,0,0.29-0.63,0.02-0.78c-0.26-0.16-0.7,0.26-0.7,0.26l-4.19,3.44c-1.63-1.75-3.55-3.16-5.76-4.16c-0.82-0.37-1.68-0.67-2.57-0.92
		l-1.3-4.98c0,0-0.11-0.5-0.45-0.5c-0.33,0-0.42,0.47-0.42,0.47l-0.83,4.4c-0.91-0.12-1.85-0.18-2.82-0.18
		c-3.13,0-5.91,0.59-8.34,1.68c-1.04,0.47-2.02,1.03-2.94,1.67c-0.15,0.11-0.3,0.22-0.45,0.33c-0.87-2.23-1.55-4.05-1.67-4.59
		c0.48-0.43,1.49-2.02,1.74-3.1c0.34-1.5,0.24-2.21-0.12-3.34c-0.26-0.83-0.79-1.61-0.75-2.13c0.03-0.39,0.23-0.67,0.41-0.85
		c-0.09-0.55-0.45-0.79-0.88-0.84c-0.39-0.05-0.7,0.06-1.05,0.08c-0.09-0.16-0.26-0.13-0.13-0.7c0.2-0.86,1.85-1.26,3.2-1.79
		c1.71-0.66,2.66-1.9,2.72-3.87c0.04-1.44-0.76-2.5-1.76-2.98c-0.2,0.58-1.03,1.36-1.61,1.68c-0.57,0.31-1.36,0.43-1.93,0.3
		c0.13-1.06-0.36-1.96-1.14-2.32c-0.25,0.45-1.17,1.07-2.57,1.03c-1.4-0.04-1.48-0.37-3.45-0.37c-2.79,0-5.1,1.69-5.39,4.16
		C3.32,7.16,3.94,8.51,4.41,9.2c-0.35,0.26-1.16,1.05-1.31,1.28c-0.2-0.24-0.76-0.55-1.42-0.11c0.14,0.35,0.17,0.78,0.06,1.19
		c-0.12,0.41-1.13,2.38-1.25,3.98c-0.2,2.7,1.36,4.53,2.67,5.06c-0.29,0.44-0.35,0.9-0.14,1.28c0.13,0.25,0.41,0.49,0.96,0.49
		c-0.32,0.35-0.44,0.88-0.23,1.39c0.23,0.58,0.9,1.43,1.48,1.43c-0.03,0.49,0.2,1.65,0.32,2.12c-0.2,0.38-0.41,0.66-0.38,1.36
		c0.03,0.73,0.49,1.31,1.07,1.43c0.15,0.35,0.25,0.73,0.46,0.97c0.2,0.23,0.39,0.52,0.82,0.81c0.44,0.29,0.93,0.52,1.51,0.52
		c0.58,0,1.09,0.03,1.35-0.06c0.01,0.17,0.07,1.7,0.13,3.41c-1.46,4.07-2.19,8.79-2.19,13.85v0c0,9.07,2.59,17.15,7.52,22.36
		c0,0,0.28,0.35,1.08,0.86c0,0,1.55-2.64,3.9-5.64c0.59-0.76,1.28-1.5,2.03-2.21c1.16-1,2.28-1.9,3.37-2.69
		c3.04-2.07,6.56-3.64,9.81-4.32c-3.73,1.92-5.84,2.95-9.34,5.95c-2.22,1.9-5.75,5.26-8.17,9.86c0.5,0.4,1.18,0.81,1.98,0.89
		c0.51-0.6,3.14-5.42,7.17-9.29c8.16-7.64,17.77-9.41,22.8-9.31c0.28-2.07,0.43-4.23,0.43-6.46c0-3.65-0.38-7.12-1.14-10.3
		l6.01-6.69C55.76,32.61,56.18,32.2,56,31.96z"/>
	<path class="st1" d="M11.32,28.94c-0.35-0.2-1.31-0.67-2.06-0.64c-0.78,0.03-1.44,0.19-2.06,0.58c-0.26-0.17-0.34-0.52-0.17-0.93
		c0.17-0.41,0.41-0.46,0.41-0.46l-0.22-3.81c0,0,1.07-0.76,1.36-0.85c0.29-0.09,0.42-0.31,0.42-0.6c0.47,0.32,1.17,1.04,1.55,1.57
		c0.35,0.49,0.55,1.05,0.58,1.66c0.03,0.61,0.04,1.34-0.09,2.09c0.24,0.2,0.47,0.38,0.49,0.7C11.55,28.56,11.44,28.68,11.32,28.94z"
		/>
	<path class="st1" d="M46.03,40.8c-0.04-0.74-0.9-2.75-1.43-3.18l9.04-4.01L46.03,40.8z"/>
	<path class="st1" d="M21.23,25.82l7.65,6.94c-0.74,0.42-1.85,1.53-2.15,2.45L21.23,25.82z"/>
	<path class="st1" d="M25.7,39.57c-0.26,0.41-0.35,0.65-0.44,1.15c-0.09,0.5-0.02,0.77,0.04,1.18l-2.35-1.62
		c0.03-0.55-0.12-1.45-0.15-1.92c0-0.05-0.02-0.13-0.03-0.2L25.7,39.57z"/>
	<path class="st1" d="M12.78,40.25c-0.14-0.26-0.81-14.39-0.84-14.88l0.76-0.55v-0.14c-0.55-0.03-1.19-0.23-1.39-0.56l-0.2-4.33
		c-0.76-0.06-1.54-0.3-1.83-0.59c-0.36-0.36-0.64-0.81-0.24-1.59c0.38,0.26,1.48,0.58,2.44,0.58c0.2,0,0.63,0.46,0.87,0.55
		c0.28,0.11,0.74,0.37,0.96,0.46c0.2,0.09,0.32,0.55,0.38,0.72c0.06,0.18,7.05,18.34,7.17,18.55c0.12,0.2,0.52,3.25,0.55,3.49
		c0.03,0.23,1.08,2.67,1.28,2.91c-0.93-0.03-2.45,0.51-3.7,1.73c-1.22,1.19-2.3,3.81-2.55,5.02C16.35,50.98,12.92,40.51,12.78,40.25
		z"/>
	<path class="st1" d="M21.67,57.63c-0.3,2.79-0.98,5.21-2.01,6.94c-0.66,1.11-2.5,3.37-3.15,4.23c0.7-1.4,1.24-4.76,1.19-7.38
		c-0.03-1.7-0.54-5.45-0.09-7.93c0.48-2.67,1.24-4.16,3.03-5.81c0.91-0.84,2.77-1.91,5.43-1.18l2.15,4.05
		c-1.15-0.22-2.67-0.02-3.69,0.76C22.63,52.76,21.99,54.74,21.67,57.63z"/>
	<path class="st1" d="M21.88,63.13c0.52-1.18,1.21-4.54,1.4-5.66c0.25-1.44,0.48-3.55,2.2-4.96c0.84-0.7,2.23-0.79,2.78-0.63
		l2.43,4.96c0.22,0.53,0.93,0.71,1.41,0.68C29.83,58.26,24.08,60.99,21.88,63.13z"/>
	<path class="st1" d="M42.59,47.3c-0.39,0.61-0.25,1.2-0.04,1.61c0.25,0.46,1.54,2.84,1.54,2.84c0.41,1.08,0.72,1.62,1.11,2.32
		c0.7,0,1.45-0.02,2.25,0c-0.85-1.91-2.79-5.59-2.79-5.59l-0.14-2.97C43.95,45.85,42.98,46.69,42.59,47.3z"/>
	<path class="st1" d="M32.21,31.52c0.96-0.17,3.13,0.03,3.83,0.37l-2.2-12.48L32.21,31.52z"/>
	<path class="st1" d="M13.68,19.93c-0.06-0.17-0.18-0.64-0.38-0.72c-0.22-0.1-0.69-0.36-0.96-0.47c-0.24-0.09-0.67-0.55-0.87-0.55
		c-0.96,0-2.06-0.32-2.44-0.58c-0.41,0.79-0.13,1.23,0.24,1.59c0.29,0.29,1.07,0.53,1.83,0.59l0.2,4.33
		c0.2,0.32,0.84,0.52,1.39,0.55v0.15l-0.76,0.55c0.03,0.49,0.7,14.62,0.84,14.88c0.14,0.26,3.57,10.73,3.66,11.37
		c0.24-1.21,1.33-3.83,2.55-5.02c1.25-1.22,2.77-1.75,3.7-1.72c-0.2-0.23-1.25-2.67-1.28-2.91c-0.03-0.23-0.43-3.28-0.55-3.49
		C20.74,38.27,13.74,20.1,13.68,19.93z"/>
	<path class="st1" d="M9.21,16.46c1.98,0,2.91,0.83,3.38,1.26c0.06-0.67-0.05-1.26-0.67-1.76c-0.52-0.42-1.43-0.79-2.82-0.79
		c-0.93,0-1.87,0.27-2.45,0.77c-0.53,0.45-0.62,0.96-0.51,1.72C6.32,17.11,7.59,16.46,9.21,16.46z"/>
	<path class="st1" d="M5.67,6.09C5.63,6.85,5.83,7.63,6.18,8.1c0.2,0.26,0.67,0.78,1.02,0.75c0.5-0.03,0.96-0.98,2.12-0.93
		c0.76,0.03,1.25,1.1,1.89,1.13c0.49,0.03,0.76-0.46,1.26-0.52c0.43-0.04,0.58,0.17,0.84,0.43c0.17-0.41,0.43-0.68,1.07-1.16
		c0.78-0.58,3.46-1.14,4.59-2.15c0.57-0.51,0.7-1.45,0.52-2.08c-0.43,0.61-1.62,1.24-2.78,1.3c-0.58,0.03-1.98-0.23-2.47-0.49
		c0.25-0.42,0.33-0.91,0.13-1.37c-0.38,0.29-2.01,0.45-2.65,0.45c-0.64,0-1.89-0.26-2.85-0.21C6.73,3.37,5.74,4.87,5.67,6.09z"/>
	<path class="st1" d="M9.34,12.69c4.59,0.09,6.67,2.21,6.73,3.95c0.23-0.52,0.2-1.02,0.17-1.6c-0.02-0.46-0.72-1.77-0.76-2.21
		c-0.03-0.44,0.09-0.73,0.17-1.13c-0.29,0.06-1.31,0.46-1.74,0.12c-0.47-0.37-0.14-1.31-0.76-1.54c-0.61-0.24-1.57,0.49-2.18,0.41
		C10.36,10.6,9.84,9.76,9.2,9.76c-0.64,0-0.96,0.78-1.75,0.96c-0.61,0.14-1.34-0.23-1.7-0.2c-0.4,0.03-0.63,0.34-0.81,0.71
		c-0.17,0.38-0.32,0.54-0.78,0.65c-0.37,0.09-0.9-0.23-1.16-0.17c0.2,0.2,0.3,1.03,0.12,1.51c-0.23,0.61-0.73,1.25-0.79,2.01
		c-0.05,0.67,0.18,0.98,0.35,1.47C2.58,14.23,5.32,12.62,9.34,12.69z"/>
	<path class="st1" d="M6.44,21.5c-0.32,0.06-0.99,0.58-1.31,1.13c0.1,0.35,0.47,1.17,0.84,1.4c0.08-0.38,0.5-1.01,0.71-1.16
		c0.29-0.21,0.58-0.35,0.81-0.46c0.23-0.12,0.32-0.23,0.32-0.5c0-0.26-0.03-0.38-0.15-0.64c0.23-0.03,0.66,0.01,0.81-0.2
		c0.14-0.2,0.21-0.46,0.21-0.72c0-0.26-0.12-0.32-0.38-0.35c-0.26-0.03-1.02-0.05-1.4-0.02c0,0,0.59-0.3,0.76-0.39
		c0.17-0.09,0.23-0.26,0.26-0.41c0.03-0.14,0.02-0.47-0.06-0.87c-0.87,0.03-2.41,0.81-2.82,1.16l0.32,0.79l-0.58-0.03
		c-0.09,0.4-0.03,1.01,0.15,1.36C5.45,21.5,6.06,21.47,6.44,21.5z"/>
	<path class="st1" d="M44.04,39.71c-0.11-0.56-1.52-2.25-3.94-4.08c-1.88-1.43-4.64-2.84-6.92-2.83c-3.84,0.02-5.42,2.66-5.71,4.03
		c-0.17,0.83-0.13,1.73,0.04,2.22c-0.61,0.52-0.84,0.95-0.96,1.54c-0.08,0.43,0,1.05,0.39,1.42c-0.04-0.57,0.34-1.23,0.65-1.66
		c0.35-0.48,0.93-0.67,1.45-0.99l0.09,1.05c-0.5,0.29-1.11,0.89-1.15,1.22l0.04,1.73l1.32-0.79l0.25,0.53l-0.48,3.05l0.74-0.13
		l1.35,0.56l-1.31,1.1v0.44c0,0,0.2-0.27,0.66-0.25c0.46,0.02,1.65,0.55,1.65,0.55l-0.04,0.26h-0.52c-0.52,0-1.79,0-1.79,0
		c-0.09,0.31,0.18,0.54,0.36,0.67c0.3-0.09,0.62-0.24,0.79-0.24s0.58,0.1,0.92,0.15l-0.42,0.56c0,0-0.22,0.17-0.61,0.09
		c-0.22-0.04-0.43,0.26-0.43,0.51c0,0.27,0.17,0.92,0.17,0.92c0.21,0.98,1.22,0.78,1.34,0.77c0.64-0.06,2.71-0.8,2.71-0.8l-1.99,2.8
		l0.87,2.99c1.32-0.54,5.25-1.94,9.52-2.64c-0.47-0.78-0.54-1.08-1.11-2.24l-2.18-5.01l0.31-0.74c0.48,0.18,1.22-0.17,1.7-0.57
		c0.48-0.39,1.05-1.09,1.26-1.53c-0.31-0.17-0.56-0.13-0.83,0.04c-0.26,0.18-0.47,0.51-0.83,0.35c-0.39-0.17-0.2-0.6-0.16-1
		c0.04-0.39-0.45-0.4-0.8-0.09c-0.35,0.3-1.09,0.17-1.57-0.3c-0.48-0.48-2.79-2.4-3.62-2.88c-1.19-0.69-2.79-0.86-3.97-0.65
		c-0.69,0.12-1.18,0.42-1.44,0.3l-0.86-1.34l0.14-0.09c0.31,0.13,0.59,0.38,0.99,0.25c0.39-0.13,1.65-0.42,2.79-0.44
		c1.75-0.03,3.87,0.61,4.8,1c0.04,1.13,2.32,2.57,3.36,2.7c0.87,0.11,1.4-0.13,1.92-0.44l-2.22-1.95l1.18-1.49
		c0,0,1.88,1.79,2.14,2.14C44.17,40.29,44.08,39.95,44.04,39.71z M30.65,41.97c0,0,0.96-0.55,1.86-0.74
		c1.33-0.28,2.8,0.51,3.85,1.34l-0.2,0.31l-1.5,0.35c-0.29-0.26-0.84-0.37-1.44-0.35c-0.53,0.03-0.96,0.22-0.96,0.22l0.29,0.48
		l-0.69,0.17c-0.3-0.39-0.78-0.87-1.22-1V41.97z M28.38,38.53c-0.39-1.32,0.66-2.62,1.13-3.09l0.74,1.7
		C29.69,37.44,28.82,38.11,28.38,38.53z M35.27,37.05c-0.7-0.48-3.01-0.39-3.97-0.17l-0.7-2.01c0.53-0.39,1.53-0.65,2.44-0.65
		c0.92,0,1.92,0.22,2.61,0.57L35.27,37.05z M39.81,39.11c-0.96-0.62-2.84-1.53-3.4-1.71l0.83-2.14c0.7,0.35,3.27,1.92,3.66,2.31
		L39.81,39.11z"/>
	<path class="st1" d="M39.51,33.43c0.86,0.31,2.69,1.84,3.12,2.19l4.62-9.85L39.51,33.43z"/>
	<g>
		<g>
			<path class="st0" d="M64.32,52.53c0,0.78,0.19,1,1.11,1.23v0.25h-4.15v-0.25c1.08-0.27,1.11-0.57,1.11-1.42v-5.6
				c0-0.78-0.19-1-1.11-1.23v-0.25h4.15v0.25c-1.05,0.24-1.11,0.57-1.11,1.41V52.53z"/>
			<path class="st0" d="M71.17,50.4c0-0.85-0.39-1.35-1.05-1.35c-0.57,0-1.05,0.33-1.41,0.99v2.64c0,0.58,0.1,0.85,0.84,1.08v0.25
				h-3.41v-0.25c0.66-0.17,0.88-0.4,0.88-0.97v-3.16c0-0.66-0.27-0.9-1.02-1v-0.25l2.46-0.21h0.25v1.36h0.03
				c0.48-0.81,1.2-1.38,2.14-1.38c0.85,0,1.98,0.57,1.98,2.05v2.47c0,0.6,0.1,0.9,0.88,1.09v0.25h-3.47v-0.25
				c0.67-0.15,0.9-0.42,0.9-1.02V50.4z"/>
			<path class="st0" d="M78.04,48.83h-1.26v3.64c0,0.99,0.13,1.11,1.17,1.29v0.25h-3.94v-0.25c0.96-0.13,1.08-0.43,1.08-1.27v-3.65
				h-0.9v-0.21c1.72-0.39,0.31-1.92,1.71-3.31c0.36-0.36,1.06-0.67,2.2-0.67c0.82,0,1.51,0.21,2.04,0.63l-1.2,1.45H78.7
				c0.09-1.17-0.52-1.68-0.99-1.68c-0.61,0-0.93,0.57-0.93,1.65v1.68h1.26V48.83z"/>
			<path class="st0" d="M83.79,51.18c0,1.65-0.6,2.65-1.65,2.65c-1.02,0-1.66-1-1.66-2.55c0-1.59,0.48-2.74,1.66-2.74
				C83.25,48.54,83.79,49.59,83.79,51.18z M85.66,51.18c0-1.39-1.08-3.04-3.52-3.04c-2.68,0-3.53,1.87-3.53,3.04
				c0,1.51,1.18,3.06,3.53,3.06S85.66,52.68,85.66,51.18z"/>
			<path class="st0" d="M91.34,50.33c-0.49-0.48-0.88-0.73-1.27-0.73c-0.51,0-0.82,0.21-1.26,0.81v2.31c0,0.67,0.13,0.88,0.96,1.05
				v0.25h-3.59v-0.25c0.75-0.18,0.94-0.4,0.94-1.05v-2.98c0-0.72-0.31-1.05-1.03-1.11v-0.25l2.47-0.22h0.25v1.8h0.03
				c0.55-1.23,1.17-1.8,1.87-1.8c0.37,0,0.73,0.16,1,0.48L91.34,50.33z"/>
			<path class="st0" d="M102.7,52.65c0,0.64,0.15,0.91,0.88,1.11v0.25h-3.47v-0.25c0.66-0.15,0.9-0.43,0.9-0.96v-2.71
				c0-0.61-0.39-1.02-0.91-1.02c-0.57,0-1.02,0.46-1.26,1.21v2.46c0,0.58,0.18,0.84,0.88,1.02v0.25h-3.47v-0.25
				c0.61-0.15,0.9-0.4,0.9-0.94v-2.83c0-0.57-0.43-0.91-0.87-0.91c-0.51,0-0.93,0.31-1.3,0.99v2.59c0,0.64,0.12,0.91,0.9,1.11v0.25
				H92.4v-0.25c0.67-0.17,0.88-0.43,0.88-1v-3.03c0-0.73-0.19-0.94-1.02-1.11v-0.25l2.46-0.21h0.25v1.38H95
				c0.43-0.91,1.14-1.39,1.99-1.39c0.96,0,1.56,0.45,1.84,1.39c0.57-0.99,1.15-1.39,2.04-1.39c1.17,0,1.83,0.75,1.83,2.07V52.65z"/>
			<path class="st0" d="M107.48,53.04c-0.39,0.39-0.72,0.58-1.06,0.58c-0.46,0-0.78-0.4-0.78-1.02c0-0.76,0.43-1.11,1.84-1.71V53.04
				z M109.19,50.25c0-1.56-1.27-2.11-2.49-2.11c-1.32,0-2.23,0.7-2.53,1.92h0.22c0.36-0.63,0.93-0.94,1.69-0.94
				c1.02,0,1.41,0.48,1.41,1.48c-1.38,0.51-3.62,0.63-3.62,2.16c0,0.82,0.76,1.48,1.69,1.48c0.69,0,1.21-0.16,1.78-0.67l0.13-0.12
				c0.28,0.57,0.67,0.79,1.36,0.79c0.82,0,1.32-0.39,1.38-1.09h-0.24c-0.06,0.34-0.21,0.52-0.45,0.52c-0.25,0-0.34-0.22-0.34-0.75
				V50.25z"/>
			<path class="st0" d="M111.26,48.81h-1.02v-0.28c0.7-0.43,1.63-1.33,2.43-2.35h0.28v2.19h1.86v0.45h-1.86v3.25
				c0,0.91,0.24,1.45,1.03,1.45c0.3,0,0.55-0.13,0.82-0.45l0.18,0.16c-0.42,0.7-0.97,1-1.81,1c-1.06,0-1.92-0.51-1.92-1.8V48.81z"/>
			<path class="st0" d="M117.82,52.8c0,0.57,0.28,0.88,0.91,0.96v0.25h-3.55v-0.25c0.76-0.15,0.94-0.36,0.94-1.08v-3.01
				c0-0.69-0.19-0.88-1.02-1.05v-0.25l2.46-0.21h0.25V52.8z M116.98,44.63c0.54,0,0.97,0.43,0.97,0.97c0,0.54-0.43,0.99-0.97,0.99
				s-0.99-0.45-0.99-0.99C115.99,45.07,116.44,44.63,116.98,44.63z"/>
			<path class="st0" d="M124.44,51.18c0,1.65-0.6,2.65-1.65,2.65c-1.02,0-1.66-1-1.66-2.55c0-1.59,0.48-2.74,1.66-2.74
				C123.9,48.54,124.44,49.59,124.44,51.18z M126.31,51.18c0-1.39-1.08-3.04-3.52-3.04c-2.68,0-3.53,1.87-3.53,3.04
				c0,1.51,1.18,3.06,3.53,3.06S126.31,52.68,126.31,51.18z"/>
			<path class="st0" d="M131.92,50.4c0-0.85-0.39-1.35-1.05-1.35c-0.57,0-1.05,0.33-1.41,0.99v2.64c0,0.58,0.1,0.85,0.84,1.08v0.25
				h-3.41v-0.25c0.66-0.17,0.88-0.4,0.88-0.97v-3.16c0-0.66-0.27-0.9-1.02-1v-0.25l2.46-0.21h0.25v1.36h0.03
				c0.48-0.81,1.2-1.38,2.14-1.38c0.85,0,1.98,0.57,1.98,2.05v2.47c0,0.6,0.1,0.9,0.88,1.09v0.25h-3.47v-0.25
				c0.67-0.15,0.9-0.42,0.9-1.02V50.4z"/>
			<path class="st0" d="M63.14,65.91v-0.25c0.93-0.18,1.11-0.48,1.11-1.32v-6.69h-0.88c-1.05,0-1.65,0.43-1.95,1.44h-0.25l0.09-2.11
				h0.27c0.1,0.06,0.25,0.1,0.4,0.13c0.16,0.03,0.33,0.04,0.46,0.04h5.65c0.28,0,0.66-0.04,0.87-0.18h0.27l0.09,2.11h-0.25
				c-0.3-1-0.9-1.44-1.95-1.44h-0.88v6.71c0,0.85,0.25,1.15,1.08,1.3v0.25H63.14z"/>
			<path class="st0" d="M70.16,62.24c0.04-1.08,0.51-1.8,1.2-1.8c0.69,0,1.2,0.75,1.26,1.8H70.16z M74.45,62.59
				c-0.21-1.56-1.36-2.55-2.97-2.55c-1.78,0-3.14,1.33-3.14,3.09c0,1.72,1.32,3.01,3.09,3.01c1.36,0,2.52-0.75,3.03-1.96h-0.25
				c-0.54,0.82-1.2,1.23-2.02,1.23c-1.05,0-2.1-0.96-2.01-2.82H74.45z"/>
			<path class="st0" d="M81.04,62.09h-0.25c-0.55-1.17-1.2-1.71-2.08-1.71c-1.15,0-1.86,0.96-1.86,2.5c0,1.59,0.78,2.55,2.08,2.55
				c0.84,0,1.32-0.25,1.98-1.06h0.3c-0.57,1.2-1.56,1.77-3.04,1.77c-1.9,0-3.19-1.18-3.19-2.94c0-1.8,1.45-3.16,3.38-3.16
				c0.4,0,0.76,0.05,1.06,0.09c0.31,0.04,0.58,0.09,0.79,0.09c0.21,0,0.27-0.03,0.45-0.18h0.24L81.04,62.09z"/>
			<path class="st0" d="M84.06,61.4h0.03c0.6-0.97,1.23-1.36,2.11-1.36c1.23,0,1.99,0.82,1.99,2.16v2.44c0,0.52,0.13,0.85,0.88,1.02
				v0.25h-3.46v-0.25c0.66-0.18,0.88-0.42,0.88-1.06v-2.28c0-0.88-0.36-1.36-1.02-1.36c-0.6,0-0.99,0.37-1.42,0.93v2.79
				c0,0.55,0.19,0.82,0.9,0.99v0.25h-3.44v-0.25c0.64-0.16,0.85-0.43,0.85-1.06v-6.71c0-0.54-0.21-0.76-0.85-0.93V56.7l2.29-0.16
				h0.25V61.4z"/>
			<path class="st0" d="M94.59,62.3c0-0.85-0.39-1.35-1.05-1.35c-0.57,0-1.05,0.33-1.41,0.99v2.64c0,0.58,0.1,0.85,0.84,1.08v0.25
				h-3.41v-0.25c0.66-0.16,0.88-0.4,0.88-0.97v-3.16c0-0.66-0.27-0.9-1.02-1v-0.25l2.46-0.21h0.25v1.36h0.03
				c0.48-0.81,1.2-1.38,2.14-1.38c0.85,0,1.98,0.57,1.98,2.05v2.47c0,0.6,0.1,0.9,0.88,1.09v0.25h-3.47v-0.25
				c0.67-0.15,0.9-0.42,0.9-1.02V62.3z"/>
			<path class="st0" d="M102.9,63.08c0,1.65-0.6,2.65-1.65,2.65c-1.02,0-1.66-1-1.66-2.55c0-1.59,0.48-2.74,1.66-2.74
				C102.36,60.44,102.9,61.49,102.9,63.08z M104.77,63.08c0-1.39-1.08-3.04-3.52-3.04c-2.68,0-3.53,1.87-3.53,3.04
				c0,1.51,1.18,3.06,3.53,3.06S104.77,64.58,104.77,63.08z"/>
			<path class="st0" d="M106.3,58.08c0-0.79-0.25-1.08-1.06-1.12V56.7l2.5-0.16h0.25v8c0,0.75,0.16,0.93,1,1.12v0.25h-3.76v-0.25
				c0.82-0.13,1.06-0.4,1.06-1.12V58.08z"/>
			<path class="st0" d="M114.64,63.08c0,1.65-0.6,2.65-1.65,2.65c-1.02,0-1.66-1-1.66-2.55c0-1.59,0.48-2.74,1.66-2.74
				C114.1,60.44,114.64,61.49,114.64,63.08z M116.51,63.08c0-1.39-1.08-3.04-3.52-3.04c-2.68,0-3.53,1.87-3.53,3.04
				c0,1.51,1.18,3.06,3.53,3.06C115.35,66.14,116.51,64.58,116.51,63.08z"/>
			<path class="st0" d="M118.91,62.3c0-1.24,0.46-1.84,1.35-1.84c0.66,0,1.21,0.57,1.21,1.8c0,1.32-0.57,1.86-1.27,1.86
				C119.42,64.11,118.91,63.41,118.91,62.3z M123.87,60.07h-2.95c-0.09,0-0.49-0.03-0.84-0.03c-1.69,0-2.86,1.02-2.86,2.32
				c0,0.97,0.57,1.59,1.89,1.99v0.03c-1.33,0.3-1.84,0.6-1.84,1.26c0,0.61,0.27,1.17,1.98,1.35v0.03c-1.65,0.16-2.41,0.96-2.41,1.68
				c0,1.03,1.33,1.75,3.25,1.75c2.52,0,3.77-1.26,3.77-2.56c0-0.37-0.16-0.85-0.54-1.23c-1.33-1.33-4.69-0.61-4.69-1.54
				c0-0.48,0.69-0.6,1.81-0.6c1.69,0,2.73-0.96,2.73-2.07c0-0.55-0.21-0.97-0.76-1.44l0.03-0.03l1.44,0.1V60.07z M118.21,68.08
				c0-0.52,0.61-0.87,1.56-0.87c0.87,0,3.13,0.22,3.13,1.36c0,0.54-0.6,0.93-1.44,0.93C120.33,69.5,118.21,69.16,118.21,68.08z"/>
			<path class="st0" d="M127.03,68.47c-0.6,1.38-1.24,1.87-2.41,1.87c-0.15,0-0.27,0-0.48-0.03l0.34-1.71
				c0.36,0.12,0.54,0.13,0.76,0.13c1.05,0,1.65-0.75,2.34-2.61l-2.07-4.36c-0.36-0.76-0.55-1.05-1.38-1.26v-0.25h3.44v0.25
				c-0.64,0.09-0.64,0.42-0.3,1.14l1.2,2.47l0.78-1.81c0.51-1.2,0.34-1.65-0.37-1.8v-0.25h2.35v0.25c-0.72,0.19-0.9,0.4-1.36,1.45
				L127.03,68.47z"/>
		</g>
		<g>
			<polygon class="st0" points="112.15,40.83 61.59,40.83 61.59,40.26 112.15,40.26 112.15,40.83 			"/>
			<polygon class="st0" points="129.76,40.83 119.22,40.83 119.22,40.26 129.76,40.26 129.76,40.83 			"/>
		</g>
		<g>
			<path class="st0" d="M65.85,34.12c0,1.07,0.45,1.4,2.04,1.4c1.6,0,2.33-0.49,3.38-2.64h0.38l-0.38,3.38h-9.93v-0.38
				c1.49-0.38,1.64-0.71,1.64-2.11v-8.31c0-1.16-0.29-1.49-1.64-1.82v-0.38h6.15v0.38c-1.29,0.33-1.64,0.6-1.64,1.73V34.12z"/>
			<path class="st0" d="M75.82,34.46c0,0.84,0.42,1.31,1.36,1.42v0.38h-5.27v-0.38c1.13-0.22,1.4-0.53,1.4-1.6v-4.47
				c0-1.02-0.29-1.31-1.51-1.56v-0.38l3.64-0.31h0.38V34.46z M74.58,22.35c0.8,0,1.44,0.64,1.44,1.44c0,0.8-0.64,1.47-1.44,1.47
				c-0.8,0-1.47-0.67-1.47-1.47C73.11,22.99,73.78,22.35,74.58,22.35z"/>
			<path class="st0" d="M81.29,29.68c0.84-0.78,1.29-1,1.95-1c1.49,0,2.49,1.42,2.49,3.47c0,2.73-1.24,3.84-3.11,3.84
				c-1,0-1.33-0.44-1.33-1.4V29.68z M81.29,22.35h-0.38l-3.4,0.24v0.38c0.78,0.13,1.27,0.53,1.27,1.24v12.04
				c1.27,0.24,2.51,0.33,4.09,0.33c4.09,0,5.64-2.13,5.64-4.71c0-2.44-1.73-4.33-4-4.33c-1.2,0-2.22,0.49-3.22,1.53V22.35z"/>
			<path class="st0" d="M92.2,30.81c0.07-1.6,0.75-2.67,1.78-2.67c1.02,0,1.78,1.11,1.86,2.67H92.2z M98.55,31.32
				c-0.31-2.31-2.02-3.78-4.4-3.78c-2.64,0-4.67,1.98-4.67,4.58c0,2.56,1.95,4.47,4.58,4.47c2.02,0,3.73-1.11,4.49-2.91h-0.38
				c-0.8,1.22-1.78,1.82-3,1.82c-1.56,0-3.11-1.42-2.98-4.18H98.55z"/>
			<path class="st0" d="M106.6,30.79c-0.73-0.71-1.31-1.09-1.89-1.09c-0.75,0-1.22,0.31-1.86,1.2v3.42c0,1,0.2,1.31,1.42,1.56v0.38
				h-5.33v-0.38c1.11-0.27,1.4-0.6,1.4-1.56V29.9c0-1.07-0.46-1.56-1.53-1.64v-0.38l3.66-0.33h0.38v2.67h0.04
				c0.82-1.82,1.73-2.67,2.78-2.67c0.55,0,1.09,0.25,1.49,0.71L106.6,30.79z"/>
			<path class="st0" d="M120.74,27.88v0.38c1.07,0.22,1.31,0.89,0.56,2.67l-1.16,2.69l-1.78-3.67c-0.51-1.07-0.51-1.56,0.44-1.69
				v-0.38h-4.85h-0.15h-2.42v-3.24h-0.42c-1.18,1.51-2.56,2.84-3.6,3.49v0.42h1.51v5.38c0,1.91,1.27,2.67,2.84,2.67
				c1.25,0,2.07-0.44,2.69-1.49l-0.27-0.24c-0.4,0.47-0.78,0.67-1.22,0.67c-1.18,0-1.53-0.8-1.53-2.16v-4.82h2.25
				c1.22,0,1.58,0.44,2.11,1.58l3.07,6.46c-1.02,2.75-1.91,3.87-3.46,3.87c-0.33,0-0.6-0.02-1.13-0.2l-0.51,2.53
				c0.31,0.05,0.49,0.05,0.71,0.05c1.73,0,2.69-0.73,3.58-2.78l4.22-9.64c0.69-1.55,0.96-1.86,2.02-2.16v-0.38H120.74z"/>
		</g>
		<g>
			<path class="st0" d="M122.16,34.06h1.87v0.27h-0.78v1.97h-0.31v-1.97h-0.78V34.06z"/>
			<path class="st0" d="M126.21,36.3v-1.32c0-0.07,0.01-0.35,0.01-0.56h-0.01l-0.65,1.88h-0.31l-0.65-1.88h-0.01
				c0,0.21,0.01,0.49,0.01,0.56v1.32h-0.3v-2.24h0.45l0.66,1.89h0.01l0.65-1.89h0.44v2.24H126.21z"/>
			<path class="st0" d="M122.16,34.06h1.87v0.27h-0.78v1.97h-0.31v-1.97h-0.78V34.06z"/>
			<path class="st0" d="M126.21,36.3v-1.32c0-0.07,0.01-0.35,0.01-0.56h-0.01l-0.65,1.88h-0.31l-0.65-1.88h-0.01
				c0,0.21,0.01,0.49,0.01,0.56v1.32h-0.3v-2.24h0.45l0.66,1.89h0.01l0.65-1.89h0.44v2.24H126.21z"/>
		</g>
	</g>
</g>
</svg>
