<?xml version="1.0" encoding="UTF-8" standalone="no"?>
<!DOCTYPE svg PUBLIC "-//W3C//DTD SVG 1.1//EN" "http://www.w3.org/Graphics/SVG/1.1/DTD/svg11.dtd">
<svg width="100%" height="100%" viewBox="0 0 4203 667" version="1.1" xmlns="http://www.w3.org/2000/svg" xmlns:xlink="http://www.w3.org/1999/xlink" xml:space="preserve" xmlns:serif="http://www.serif.com/" style="fill-rule:evenodd;clip-rule:evenodd;stroke-linejoin:round;stroke-miterlimit:2;">
    <g transform="matrix(1,0,0,1,-55285.7,-6156.91)">
        <g transform="matrix(4.16667,0,0,4.16667,52127.1,5274.93)">
            <g id="Group-2" serif:id="Group 2" transform="matrix(5.85444,0,0,5.84849,752.673,211.675)">
                <g id="Fill-1" serif:id="Fill 1" transform="matrix(0.993971,0,0,0.993971,0.922421,-0.000125218)">
                    <path d="M4.324,23.522L3.901,23.973C4.901,24.902 6.056,25.663 7.296,26.255L7.296,25.001C6.225,24.663 5.226,24.155 4.324,23.522Z" style="fill:rgb(46,44,121);"/>
                </g>
                <g id="Fill-2" serif:id="Fill 2" transform="matrix(0.993971,0,0,0.993971,0.922421,-0.000125218)">
                    <path d="M0.295,18.578C0.915,20.269 1.859,21.818 3.042,23.113L3.366,22.761C2.056,21.634 1,20.212 0.295,18.578Z" style="fill:rgb(46,44,121);"/>
                </g>
                <g id="Fill-3" serif:id="Fill 3" transform="matrix(0.993971,0,0,0.993971,0.922421,-0.000125218)">
                    <path d="M7.31,2.69L7.31,1.282C6.225,1.789 5.225,2.437 4.323,3.211L4.507,4.071C5.352,3.479 6.295,3.014 7.31,2.69Z" style="fill:rgb(46,44,121);"/>
                </g>
                <g id="Fill-4" serif:id="Fill 4" transform="matrix(0.993971,0,0,0.993971,0.922421,-0.000125218)">
                    <path d="M3.436,4.859L3.296,4.155C1.775,5.747 0.62,7.704 0,9.888C0.69,7.916 1.887,6.183 3.436,4.859Z" style="fill:rgb(46,44,121);"/>
                </g>
                <g id="Fill-5" serif:id="Fill 5" transform="matrix(0.993971,0,0,0.993971,0.922421,-0.000125218)">
                    <path d="M22.367,13.071L26.508,13.127C26.423,11.028 25.846,9.028 24.916,7.281L21.24,8.747C21.874,10.056 22.268,11.522 22.367,13.071Z" style="fill:rgb(46,44,121);"/>
                </g>
                <g id="Fill-6" serif:id="Fill 6" transform="matrix(0.993971,0,0,0.993971,0.922421,-0.000125218)">
                    <path d="M16.874,3.831L19.127,1.493C17.649,0.718 15.987,0.211 14.254,0.057L13.212,2.352C14.522,2.634 15.761,3.141 16.874,3.831Z" style="fill:rgb(46,44,121);"/>
                </g>
                <g id="Fill-7" serif:id="Fill 7" transform="matrix(0.993971,0,0,0.993971,0.922421,-0.000125218)">
                    <path d="M10.859,2.113C11.239,2.113 11.62,2.127 11.986,2.169L12.958,0C11.395,0 9.902,0.267 8.493,0.774L8.493,2.366C9.253,2.197 10.056,2.113 10.859,2.113Z" style="fill:rgb(46,44,121);"/>
                </g>
                <g id="Fill-8" serif:id="Fill 8" transform="matrix(0.993971,0,0,0.993971,0.922421,-0.000125218)">
                    <path d="M20.662,7.662L24.296,6.212C23.226,4.577 21.831,3.169 20.198,2.113L17.874,4.521C18.973,5.394 19.916,6.451 20.662,7.662Z" style="fill:rgb(46,44,121);"/>
                </g>
                <g id="Fill-9" serif:id="Fill 9" transform="matrix(0.993971,0,0,0.993971,0.922421,-0.000125218)">
                    <path d="M17.916,23.128L20.043,25.508C21.593,24.536 22.916,23.268 23.987,21.776L20.804,19.789C20.071,21.072 19.085,22.212 17.916,23.128Z" style="fill:rgb(46,44,121);"/>
                </g>
                <g id="Fill-10" serif:id="Fill 10" transform="matrix(0.993971,0,0,0.993971,0.922421,-0.000125218)">
                    <path d="M22.381,14.282C22.324,15.845 21.958,17.339 21.367,18.705L24.648,20.761C25.748,18.86 26.41,16.691 26.494,14.353L22.381,14.282Z" style="fill:rgb(46,44,121);"/>
                </g>
                <g id="Fill-11" serif:id="Fill 11" transform="matrix(0.993971,0,0,0.993971,0.922421,-0.000125218)">
                    <path d="M13.31,25.325L13.86,27.508C15.69,27.396 17.423,26.902 18.987,26.114L16.93,23.832C15.831,24.522 14.606,25.029 13.31,25.325Z" style="fill:rgb(46,44,121);"/>
                </g>
                <g id="Fill-12" serif:id="Fill 12" transform="matrix(0.993971,0,0,0.993971,0.922421,-0.000125218)">
                    <path d="M10.859,25.593C10.042,25.593 9.267,25.508 8.493,25.353L8.493,26.776C9.789,27.24 11.169,27.508 12.62,27.537L12.113,25.522C11.704,25.565 11.282,25.593 10.859,25.593Z" style="fill:rgb(46,44,121);"/>
                </g>
                <g id="Fill-13" serif:id="Fill 13" transform="matrix(0.993971,0,0,0.993971,0.922421,-0.000125218)">
                    <path d="M3.986,14.127L1,14.085C1.07,15.606 1.478,17.043 2.141,18.311L4.789,17.254C4.352,16.297 4.056,15.24 3.986,14.127Z" style="fill:rgb(46,44,121);"/>
                </g>
                <g id="Fill-14" serif:id="Fill 14" transform="matrix(0.993971,0,0,0.993971,0.922421,-0.000125218)">
                    <path d="M4.704,10.042L2.338,8.564C1.549,9.93 1.07,11.508 1,13.198L3.972,13.24C4.014,12.113 4.267,11.028 4.704,10.042Z" style="fill:rgb(46,44,121);"/>
                </g>
                <g id="Fill-15" serif:id="Fill 15" transform="matrix(0.993971,0,0,0.993971,0.922421,-0.000125218)">
                    <path d="M17.648,20.043L17.761,20.55C18.859,19.395 19.691,17.987 20.141,16.409C19.634,17.832 18.775,19.086 17.648,20.043Z" style="fill:rgb(46,44,121);"/>
                </g>
                <g id="Fill-16" serif:id="Fill 16" transform="matrix(0.993971,0,0,0.993971,0.922421,-0.000125218)">
                    <path d="M7.197,6.845L5.662,5.127C4.549,5.831 3.578,6.747 2.817,7.831L5.113,9.268C5.648,8.338 6.366,7.507 7.197,6.845Z" style="fill:rgb(46,44,121);"/>
                </g>
                <g id="Fill-17" serif:id="Fill 17" transform="matrix(0.993971,0,0,0.993971,0.922421,-0.000125218)">
                    <path d="M14.859,21.606L14.859,22.621C15.648,22.255 16.366,21.776 17.015,21.226L16.873,20.606C16.268,21.043 15.592,21.381 14.859,21.606Z" style="fill:rgb(46,44,121);"/>
                </g>
                <g id="Fill-18" serif:id="Fill 18" transform="matrix(0.993971,0,0,0.993971,0.922421,-0.000125218)">
                    <path d="M7.958,20.789L6.338,22.48C7.408,23.029 8.592,23.395 9.859,23.522L10.606,21.86C9.648,21.649 8.761,21.283 7.958,20.789Z" style="fill:rgb(46,44,121);"/>
                </g>
                <g id="Fill-19" serif:id="Fill 19" transform="matrix(0.993971,0,0,0.993971,0.922421,-0.000125218)">
                    <path d="M12.296,22.029C12.029,22.029 11.747,22.015 11.479,21.987L10.775,23.55C11.902,23.55 12.986,23.353 13.987,23L13.987,21.846C13.451,21.959 12.888,22.029 12.296,22.029Z" style="fill:rgb(46,44,121);"/>
                </g>
                <g id="Fill-20" serif:id="Fill 20" transform="matrix(0.993971,0,0,0.993971,0.922421,-0.000125218)">
                    <path d="M19.916,10.127C19.465,8.901 18.789,7.789 17.93,6.845L17.705,7.085C18.648,7.93 19.409,8.958 19.916,10.127Z" style="fill:rgb(46,44,121);"/>
                </g>
                <g id="Fill-21" serif:id="Fill 21" transform="matrix(0.993971,0,0,0.993971,0.922421,-0.000125218)">
                    <path d="M5.225,18.015L2.606,19.057C3.366,20.24 4.38,21.255 5.563,22.015L7.239,20.268C6.436,19.649 5.761,18.888 5.225,18.015Z" style="fill:rgb(46,44,121);"/>
                </g>
                <g id="Fill-22" serif:id="Fill 22" transform="matrix(0.993971,0,0,0.993971,0.922421,-0.000125218)">
                    <path d="M17.015,6.564L17.325,6.239C16.592,5.577 15.775,5.014 14.873,4.592L14.873,5.493C15.634,5.733 16.352,6.099 17.015,6.564Z" style="fill:rgb(46,44,121);"/>
                </g>
                <g id="Fill-23" serif:id="Fill 23" transform="matrix(0.993971,0,0,0.993971,0.922421,-0.000125218)">
                    <path d="M8.254,4C7.62,4.169 7.014,4.409 6.436,4.69L7.915,6.338C8.704,5.831 9.592,5.479 10.536,5.268L10.141,3.69C9.592,3.733 9.042,3.803 8.507,3.93L8.507,4L8.254,4Z" style="fill:rgb(46,44,121);"/>
                </g>
                <g id="Fill-24" serif:id="Fill 24" transform="matrix(0.993971,0,0,0.993971,0.922421,-0.000125218)">
                    <path d="M12.296,5.07C12.873,5.07 13.451,5.141 14.001,5.239L14.001,4.226C13.056,3.887 12.057,3.69 11.014,3.676L11.38,5.127C11.69,5.084 11.986,5.07 12.296,5.07Z" style="fill:rgb(46,44,121);"/>
                </g>
                <g id="Fill-25" serif:id="Fill 25" transform="matrix(0.993971,0,0,0.993971,0.922421,-0.000125218)">
                    <path d="M8.507,4L8.507,3.93C8.422,3.944 8.338,3.972 8.268,4L8.507,4Z" style="fill:rgb(46,44,121);"/>
                </g>
                <g id="Fill-26" serif:id="Fill 26" transform="matrix(0.993971,0,0,0.993971,0.922421,-0.000125218)">
                    <path d="M17.282,13.254L19.381,13.282C19.339,12.212 19.043,11.197 18.578,10.31L16.705,11.043C17.029,11.733 17.225,12.465 17.282,13.254Z" style="fill:rgb(46,44,121);"/>
                </g>
                <g id="Fill-27" serif:id="Fill 27" transform="matrix(0.993971,0,0,0.993971,0.922421,-0.000125218)">
                    <path d="M14.479,8.564L15.634,7.381C14.873,6.986 14.042,6.733 13.155,6.648L12.62,7.817C13.296,7.958 13.916,8.212 14.479,8.564Z" style="fill:rgb(46,44,121);"/>
                </g>
                <g id="Fill-28" serif:id="Fill 28" transform="matrix(0.993971,0,0,0.993971,0.922421,-0.000125218)">
                    <path d="M12.662,19.493L12.944,20.607C13.873,20.536 14.761,20.296 15.55,19.902L14.507,18.747C13.958,19.085 13.338,19.339 12.662,19.493Z" style="fill:rgb(46,44,121);"/>
                </g>
                <g id="Fill-29" serif:id="Fill 29" transform="matrix(0.993971,0,0,0.993971,0.922421,-0.000125218)">
                    <path d="M11.423,7.69C11.62,7.69 11.803,7.704 12,7.718L12.507,6.62C11.719,6.62 10.944,6.761 10.24,7.014L10.24,7.817C10.62,7.732 11.014,7.69 11.423,7.69Z" style="fill:rgb(46,44,121);"/>
                </g>
                <g id="Fill-30" serif:id="Fill 30" transform="matrix(0.993971,0,0,0.993971,0.922421,-0.000125218)">
                    <path d="M9.62,7.972L9.62,7.254C9.07,7.507 8.563,7.845 8.099,8.226L8.183,8.662C8.634,8.394 9.113,8.156 9.62,7.972Z" style="fill:rgb(46,44,121);"/>
                </g>
                <g id="Fill-31" serif:id="Fill 31" transform="matrix(0.993971,0,0,0.993971,0.922421,-0.000125218)">
                    <path d="M16.761,16.113L18.423,17.156C18.972,16.183 19.311,15.085 19.366,13.902L17.268,13.874C17.254,14.677 17.071,15.437 16.761,16.113Z" style="fill:rgb(46,44,121);"/>
                </g>
                <g id="Fill-32" serif:id="Fill 32" transform="matrix(0.993971,0,0,0.993971,0.922421,-0.000125218)">
                    <path d="M6.056,16.057C6.38,16.916 6.845,17.705 7.465,18.367L7.633,18.198C6.958,17.606 6.408,16.888 6.056,16.057Z" style="fill:rgb(46,44,121);"/>
                </g>
                <g id="Fill-33" serif:id="Fill 33" transform="matrix(0.993971,0,0,0.993971,0.922421,-0.000125218)">
                    <path d="M8.113,18.578L7.887,18.803C8.395,19.282 8.986,19.662 9.606,19.959L9.606,19.325C9.07,19.156 8.564,18.902 8.113,18.578Z" style="fill:rgb(46,44,121);"/>
                </g>
                <g id="Fill-34" serif:id="Fill 34" transform="matrix(0.993971,0,0,0.993971,0.922421,-0.000125218)">
                    <path d="M7.648,9.085L7.578,8.733C6.803,9.55 6.225,10.536 5.901,11.648C6.253,10.634 6.873,9.761 7.648,9.085Z" style="fill:rgb(46,44,121);"/>
                </g>
                <g id="Fill-35" serif:id="Fill 35" transform="matrix(0.993971,0,0,0.993971,0.922421,-0.000125218)">
                    <path d="M16.409,10.507L18.254,9.775C17.719,8.93 17,8.225 16.169,7.69L14.986,8.916C15.55,9.366 16.029,9.902 16.409,10.507Z" style="fill:rgb(46,44,121);"/>
                </g>
                <g id="Fill-36" serif:id="Fill 36" transform="matrix(0.993971,0,0,0.993971,0.922421,-0.000125218)">
                    <path d="M11.423,19.621C11.015,19.621 10.606,19.578 10.226,19.494L10.226,20.212C10.887,20.451 11.592,20.592 12.324,20.606L12.071,19.593C11.86,19.607 11.648,19.621 11.423,19.621Z" style="fill:rgb(46,44,121);"/>
                </g>
                <g id="Fill-37" serif:id="Fill 37" transform="matrix(0.993971,0,0,0.993971,0.922421,-0.000125218)">
                    <path d="M15.014,18.367L16.099,19.578C16.888,19.085 17.564,18.438 18.099,17.677L16.479,16.663C16.099,17.325 15.606,17.902 15.014,18.367Z" style="fill:rgb(46,44,121);"/>
                </g>
            </g>
        </g>
        <g transform="matrix(4.16667,0,0,4.16667,52127.1,5274.93)">
            <g id="CleanINTERNET-SOLUTI" serif:id="CleanINTERNET SOLUTI" transform="matrix(6.58232,0,0,6.58232,752.913,211.675)">
                <g transform="matrix(1,0,0,1,0,-2.15067)">
                    <path d="M44.337,16.528C44.187,17.928 43.036,18.545 41.953,18.545C40.786,18.545 39.552,17.828 39.552,16.194L39.552,12.426C39.552,10.792 40.786,10.076 41.953,10.076C43.036,10.076 44.187,10.692 44.337,12.093L46.121,12.093C45.987,9.759 44.337,8.308 41.953,8.308C39.452,8.308 37.768,9.909 37.768,12.426L37.768,16.194C37.768,18.712 39.452,20.312 41.953,20.312C44.337,20.312 45.971,18.845 46.121,16.528L44.337,16.528Z" style="fill:rgb(23,23,23);fill-rule:nonzero;"/>
                </g>
                <g transform="matrix(1,0,0,1,0,-2.15063)">
                    <path d="M51.24,10.242L56.342,10.242L56.342,8.475L49.456,8.475L49.456,20.145L56.342,20.145L56.342,18.378L51.24,18.378L51.24,15.144L55.175,15.144L55.175,13.377L51.24,13.377L51.24,10.242Z" style="fill:rgb(23,23,23);fill-rule:nonzero;"/>
                </g>
                <g transform="matrix(1,0,0,1,0,-2.15063)">
                    <path d="M67.747,8.475L65.963,8.475L65.963,16.844L61.161,8.475L59.377,8.475L59.377,20.145L61.161,20.145L61.161,11.776L65.963,20.145L67.747,20.145L67.747,8.475Z" style="fill:rgb(23,23,23);fill-rule:nonzero;"/>
                </g>
                <g transform="matrix(1,0,0,1,0,-2.15063)">
                    <path d="M78.584,10.242L78.584,8.475L70.232,8.475L70.232,10.242L73.516,10.242L73.516,20.145L75.3,20.145L75.3,10.242L78.584,10.242Z" style="fill:rgb(23,23,23);fill-rule:nonzero;"/>
                </g>
                <g transform="matrix(1,0,0,1,0,-2.15063)">
                    <path d="M84.988,15.127L87.939,20.145L89.939,20.145L86.938,15.044C88.639,14.727 89.556,13.527 89.556,11.809C89.556,9.792 88.289,8.475 85.971,8.475L81.386,8.475L81.386,20.145L83.17,20.145L83.17,15.127L84.988,15.127ZM87.739,11.826C87.739,12.843 87.055,13.41 85.971,13.41L83.17,13.41L83.17,10.242L85.971,10.242C87.055,10.242 87.739,10.809 87.739,11.826Z" style="fill:rgb(23,23,23);fill-rule:nonzero;"/>
                </g>
                <g transform="matrix(1,0,0,1,0,-2.15063)">
                    <path d="M99.527,10.242L99.527,8.475L92.641,8.475L92.641,10.242L95.192,10.242L95.192,18.378L92.641,18.378L92.641,20.145L99.527,20.145L99.527,18.378L96.976,18.378L96.976,10.242L99.527,10.242Z" style="fill:rgb(23,23,23);fill-rule:nonzero;"/>
                </g>
                <g transform="matrix(1,0,0,1,0,-2.15063)">
                    <path d="M107.564,10.209C109.064,10.209 109.681,11.159 109.681,12.276C109.681,13.393 109.064,14.344 107.564,14.344L104.913,14.344L104.913,10.209L107.564,10.209ZM104.913,16.111L107.564,16.111C110.265,16.111 111.498,14.36 111.498,12.293C111.498,10.226 110.265,8.475 107.564,8.475L103.129,8.475L103.129,20.145L104.913,20.145L104.913,16.111Z" style="fill:rgb(23,23,23);fill-rule:nonzero;"/>
                </g>
                <g transform="matrix(1,0,0,1,0,-2.15063)">
                    <path d="M116.268,10.242L121.369,10.242L121.369,8.475L114.484,8.475L114.484,20.145L121.369,20.145L121.369,18.378L116.268,18.378L116.268,15.144L120.202,15.144L120.202,13.377L116.268,13.377L116.268,10.242Z" style="fill:rgb(23,23,23);fill-rule:nonzero;"/>
                </g>
                <g transform="matrix(1,0,0,1,0,-2.15063)">
                    <path d="M132.774,10.242L132.774,8.475L124.421,8.475L124.421,10.242L127.706,10.242L127.706,20.145L129.49,20.145L129.49,10.242L132.774,10.242Z" style="fill:rgb(23,23,23);fill-rule:nonzero;"/>
                </g>
                <g transform="matrix(1,0,0,1,0,-2.15063)">
                    <path d="M142.595,20.145L144.429,20.145L140.344,8.475L138.511,8.475L134.426,20.145L136.26,20.145L137.243,17.328L141.612,17.328L142.595,20.145ZM137.81,15.677L139.427,11.043L141.045,15.677L137.81,15.677Z" style="fill:rgb(23,23,23);fill-rule:nonzero;"/>
                </g>
                <g transform="matrix(1,0,0,1,0,-2.15063)">
                    <path d="M147.114,20.145L154,20.145L154,18.378L148.898,18.378L148.898,8.475L147.114,8.475L147.114,20.145Z" style="fill:rgb(23,23,23);fill-rule:nonzero;"/>
                </g>
            </g>
        </g>
    </g>
</svg>
