<svg width="655" height="121" viewBox="0 0 655 121" fill="none" xmlns="http://www.w3.org/2000/svg">
<path fill-rule="evenodd" clip-rule="evenodd" d="M191.508 116.39V19.4878C191.508 18.2664 192.498 17.2762 193.719 17.2762H247.469C248.69 17.2762 249.681 18.2664 249.681 19.4878V27.2542C249.681 28.4757 248.69 29.4658 247.469 29.4658H204.011V61.3756H242.748C243.97 61.3756 244.96 62.3658 244.96 63.5872V71.0342C244.96 72.2556 243.97 73.2457 242.748 73.2457H204.011V106.417H247.475C248.696 106.417 249.686 107.407 249.686 108.629V116.395C249.686 117.616 248.696 118.607 247.474 118.606L193.719 118.601C192.498 118.601 191.508 117.611 191.508 116.39Z" fill="#0B1228"/>
<path d="M648.449 27.0233L645.482 18.1275V27.0233H643.84V16.4797H646.591L649.291 25.0471L652.041 16.4797H654.701V27.0233H653.058V18.1275L650.091 27.0233H648.449Z" fill="#0B1228"/>
<path d="M637.582 17.7991H634.286V16.4797H642.525V17.7991H639.23V27.0175H637.582V17.7991Z" fill="#0B1228"/>
<path fill-rule="evenodd" clip-rule="evenodd" d="M604.795 107.673H604.814C610.94 107.673 615.406 106.217 618.333 103.576C621.238 100.955 622.815 96.9943 622.815 91.5612V91.5477C622.855 87.9431 621.617 84.4409 619.32 81.6627C617.023 78.8845 613.816 77.0101 610.268 76.3721L610.22 76.3635L593.487 71.9471C587.385 70.4486 581.999 66.8604 578.265 61.8052C574.537 56.7566 572.691 50.5633 573.048 44.2979C573.056 35.9852 576.003 28.9729 581.224 24.041C586.446 19.1079 593.848 16.3455 602.605 16.3455C612.394 16.3455 619.599 19.6571 624.634 24.7489C629.643 29.8158 632.418 36.558 633.547 43.3117C633.775 44.6722 632.71 45.8587 631.377 45.8587H623.667C622.516 45.8587 621.607 44.9907 621.452 43.9211C620.835 39.6832 618.724 35.7933 615.485 32.9635C612.032 29.947 607.558 28.3627 602.976 28.5343L602.953 28.5351H602.93C597.491 28.5351 593.16 30.1177 590.202 32.8225C587.256 35.5167 585.557 39.4283 585.557 44.333V44.3614L585.556 44.3897C585.386 48.0056 586.493 51.5659 588.682 54.4488C590.872 57.3316 594.004 59.3536 597.533 60.1615L597.557 60.1671L614.89 64.8959C620.952 66.3949 626.316 69.9259 630.09 74.9006C633.862 79.8743 635.817 85.9905 635.627 92.2299C635.623 100.856 632.682 107.963 627.323 112.908C621.975 117.841 614.342 120.508 605.148 120.513C600.819 120.693 596.499 119.984 592.454 118.429C588.401 116.872 584.711 114.499 581.612 111.457C578.514 108.416 576.073 104.77 574.441 100.747C572.927 97.0174 572.139 93.0365 572.114 89.0173C572.107 87.8362 573.033 86.9021 574.165 86.8268L581.631 86.3306C582.925 86.2445 583.958 87.2664 584.015 88.4829C584.126 90.8423 584.651 93.1665 585.57 95.3485C586.618 97.8414 588.159 100.098 590.098 101.983C592.037 103.868 594.336 105.343 596.858 106.321C599.38 107.299 602.073 107.759 604.776 107.674L604.795 107.673Z" fill="#0B1228"/>
<path fill-rule="evenodd" clip-rule="evenodd" d="M523.244 76.7704V116.39C523.244 117.611 524.234 118.601 525.455 118.602L533.557 118.606C534.779 118.607 535.77 117.616 535.77 116.395V76.7675L567.808 20.5834C568.649 19.1091 567.584 17.2763 565.887 17.2763H557.173C556.378 17.2763 555.644 17.7028 555.251 18.3934L529.502 63.6038L503.753 18.3934C503.359 17.7028 502.626 17.2763 501.831 17.2763H492.8C491.099 17.2763 490.034 19.1174 490.884 20.5918L523.244 76.7704Z" fill="#0B1228"/>
<path fill-rule="evenodd" clip-rule="evenodd" d="M456.002 107.673H456.021C462.148 107.673 466.614 106.217 469.54 103.576C472.445 100.955 474.023 96.9943 474.023 91.5612V91.5477C474.063 87.9431 472.824 84.4409 470.527 81.6627C468.23 78.8845 465.023 77.0101 461.475 76.3721L461.427 76.3635L444.695 71.9471C438.592 70.4486 433.206 66.8604 429.473 61.8052C425.744 56.7566 423.899 50.5633 424.255 44.2979C424.264 35.9852 427.21 28.9729 432.431 24.041C437.653 19.1079 445.055 16.3455 453.813 16.3455C463.601 16.3455 470.807 19.6571 475.841 24.7489C480.85 29.8158 483.626 36.558 484.755 43.3117C484.982 44.6722 483.917 45.8587 482.585 45.8587H474.875C473.723 45.8587 472.815 44.9906 472.659 43.9211C472.042 39.6832 469.931 35.7933 466.692 32.9635C463.239 29.947 458.765 28.3627 454.183 28.5343L454.16 28.5351H454.138C448.698 28.5351 444.367 30.1177 441.41 32.8225C438.464 35.5167 436.764 39.4282 436.764 44.333V44.3614L436.763 44.3897C436.594 48.0056 437.701 51.5659 439.89 54.4488C442.079 57.3316 445.212 59.3536 448.74 60.1615L448.764 60.1671L466.098 64.8959C472.159 66.3949 477.523 69.9259 481.297 74.9006C485.07 79.8743 487.024 85.9905 486.835 92.2299C486.83 100.856 483.89 107.963 478.53 112.908C473.182 117.84 465.55 120.508 456.356 120.513C452.027 120.696 447.706 119.99 443.66 118.438C439.606 116.884 435.915 114.513 432.814 111.474C429.713 108.434 427.27 104.791 425.635 100.769C424.119 97.0393 423.328 93.0584 423.3 89.0388C423.292 87.859 424.216 86.9248 425.347 86.8472L432.834 86.3332C434.13 86.2442 435.165 87.2669 435.222 88.4851C435.334 90.8437 435.859 93.1672 436.777 95.3485C437.826 97.8414 439.366 100.098 441.305 101.983C443.245 103.868 445.544 105.343 448.066 106.321C450.587 107.299 453.28 107.759 455.983 107.674L456.002 107.673Z" fill="#0B1228"/>
<path fill-rule="evenodd" clip-rule="evenodd" d="M354.983 116.39V19.4879C354.983 18.2665 355.973 17.2763 357.194 17.2763H410.944C412.166 17.2763 413.156 18.2665 413.156 19.4879V27.2544C413.156 28.4758 412.166 29.4659 410.944 29.4659H367.486V61.3757H406.224C407.445 61.3757 408.435 62.3659 408.435 63.5873V71.0343C408.435 72.2557 407.445 73.2459 406.224 73.2459H367.486V106.417H410.95C412.171 106.417 413.161 107.407 413.161 108.629V116.395C413.161 117.617 412.171 118.607 410.949 118.607L357.194 118.601C355.973 118.601 354.983 117.611 354.983 116.39Z" fill="#0B1228"/>
<path fill-rule="evenodd" clip-rule="evenodd" d="M337.246 19.4879V116.39C337.246 117.611 336.256 118.601 335.036 118.602L326.832 118.606C326.058 118.607 325.34 118.202 324.939 117.54L278.66 41.1V116.39C278.66 117.611 277.669 118.601 276.448 118.601H268.368C267.146 118.601 266.156 117.611 266.156 116.39V19.4879C266.156 18.2665 267.146 17.2763 268.368 17.2763H276.884C277.658 17.2763 278.376 17.6806 278.776 18.3425L325.056 94.783V19.4879C325.056 18.2665 326.046 17.2763 327.268 17.2763H335.034C336.256 17.2763 337.246 18.2665 337.246 19.4879Z" fill="#0B1228"/>
<path fill-rule="evenodd" clip-rule="evenodd" d="M140.769 28.2029H140.743C135.305 28.2029 129.715 29.8647 125.498 33.7489C121.303 37.6124 118.329 43.8001 118.329 53.1336V82.7462C118.329 92.0797 121.303 98.2674 125.498 102.131C129.715 106.015 135.305 107.677 140.743 107.677C146.181 107.677 151.77 106.015 155.988 102.131C160.183 98.2674 163.156 92.0797 163.156 82.7462V76.0811H141.743C140.521 76.0811 139.531 75.0909 139.531 73.8695V66.114C139.531 64.8926 140.521 63.9025 141.743 63.9025H173.129C174.35 63.9025 175.34 64.8926 175.34 66.114V82.7407C175.34 93.7 171.954 102.989 165.885 109.551C159.808 116.122 151.128 119.861 140.743 119.861C130.514 119.861 121.837 116.118 115.723 109.552C109.616 102.993 106.145 93.705 106.145 82.7407V53.1336C106.145 42.1745 109.53 32.8851 115.602 26.3238C121.678 19.7579 130.358 16.021 140.75 16.0188C149.374 15.7285 157.774 18.8043 164.171 24.5962C170.3 30.1445 174.13 37.7681 174.939 45.969C175.069 47.2835 174.02 48.3633 172.753 48.3633H164.958C163.811 48.3633 162.898 47.5003 162.745 46.4252C162.025 41.3601 159.497 36.7141 155.613 33.3549C151.512 29.8089 146.211 27.9653 140.796 28.2018L140.769 28.2029Z" fill="#0B1228"/>
<path d="M53.0849 83.9709H40.8069C35.8102 83.9709 31.018 85.9136 27.4848 89.3717C23.9516 92.8298 21.9666 97.52 21.9666 102.41C21.9666 107.301 23.9516 111.991 27.4848 115.449C31.018 118.907 35.8102 120.85 40.8069 120.85H53.0849C58.0817 120.85 62.8738 118.907 66.407 115.449C69.9403 111.991 71.9252 107.301 71.9252 102.41C71.9252 97.52 69.9403 92.8298 66.407 89.3717C62.8738 85.9136 58.0817 83.9709 53.0849 83.9709Z" fill="#FF451A"/>
<path d="M51.8896 36.3117H20.6622C15.2901 36.3117 10.138 38.4039 6.33926 42.128C2.54058 45.8521 0.406494 50.903 0.406494 56.1697C0.406494 61.4363 2.54058 66.4873 6.33926 70.2114C10.138 73.9355 15.2901 76.0277 20.6622 76.0277H51.8896C54.5496 76.0277 57.1836 75.514 59.6412 74.5161C62.0987 73.5181 64.3317 72.0554 66.2126 70.2114C68.0935 68.3674 69.5855 66.1783 70.6035 63.769C71.6214 61.3597 72.1454 58.7775 72.1454 56.1697C72.1454 53.5619 71.6214 50.9796 70.6035 48.5704C69.5855 46.1611 68.0935 43.972 66.2126 42.128C64.3317 40.284 62.0987 38.8213 59.6412 37.8233C57.1836 36.8253 54.5496 36.3117 51.8896 36.3117Z" fill="#FF451A"/>
<path d="M43.5267 14.1843C43.5267 6.35051 49.8772 0 57.711 0V0C65.5448 0 71.8953 6.35051 71.8953 14.1843V14.1843C71.8953 22.018 65.5448 28.3685 57.711 28.3685V28.3685C49.8772 28.3685 43.5267 22.018 43.5267 14.1843V14.1843Z" fill="#FF451A"/>
</svg>
